<svg xmlns="http://www.w3.org/2000/svg" width="1200" height="630" viewBox="0 0 1200 630" role="img" aria-labelledby="title desc">
  <title id="title">EU Digital Product Passport business guide</title><desc id="desc">Catalogue identifiers connect to a DPP-ready structured product record.</desc>
  <rect width="1200" height="630" fill="#f5f4ed"/><path d="M0 0h16v630H0z" fill="#c8ff4d"/>
  <g fill="#171a16" font-family="Arial,sans-serif"><text x="72" y="87" font-size="24" font-weight="700">BarcodeNest / Field notes</text><text x="72" y="181" font-size="58" font-weight="700">EU Digital Product Passport</text><text x="72" y="245" font-size="31">What businesses need to prepare for now</text></g>
  <g transform="translate(72 326)" font-family="Arial,sans-serif"><rect width="330" height="172" rx="8" fill="#171a16"/><text x="26" y="39" fill="#9ca398" font-size="14">CATALOGUE INPUTS</text><g fill="#c8ff4d" font-family="monospace" font-size="20"><text x="26" y="82">SKU</text><text x="112" y="82">EAN-13</text><text x="228" y="82">GTIN-14</text></g><text x="26" y="132" fill="#f5f4ed" font-size="17">Normalize product identity</text></g>
  <g font-family="Arial,sans-serif"><text x="459" y="398" fill="#62665e" font-size="15">CONNECT</text><text x="476" y="459" fill="#171a16" font-size="54">→</text></g>
  <g transform="translate(590 326)" font-family="Arial,sans-serif"><rect width="520" height="172" rx="8" fill="#ebeae2" stroke="#d5d4cb"/><text x="26" y="39" fill="#171a16" font-size="19" font-weight="700">DPP-READY FOUNDATION</text><g font-size="17"><text x="26" y="86" fill="#75a300">✓</text><text x="52" y="86" fill="#62665e">Identity</text><text x="183" y="86" fill="#75a300">✓</text><text x="209" y="86" fill="#62665e">Product data</text><text x="370" y="86" fill="#75a300">✓</text><text x="396" y="86" fill="#62665e">Traceability</text></g><path d="M26 112h468" stroke="#d5d4cb"/><text x="26" y="143" fill="#62665e" font-size="14">Structured, consistent, interoperable</text></g>
  <text x="72" y="568" fill="#62665e" font-family="Arial,sans-serif" font-size="20">Treat product identifiers as infrastructure.</text>
</svg>
